#!OML:ASF I:\Actors\actors\Patient Classification 2\Patient 1\Session 1\actor1.ASF
:FULLY-SPECIFIED
:DEGREES
866
root -0.761472 18.7085 5.50992 2.85861 -2.74013 -1.75104
lowerback 14.3879 0.227147 0.550465
upperback 3.4854 0.437882 1.21338
thorax -4.38608 0.210961 0.884142
lowerneck 0.586142 -0.532148 0.217341
upperneck -3.19652 -0.679142 0.961927
head -1.07057 -0.354736 0.265911
rclavicle 9.14409e-015 7.95139e-015
rhumerus 8.18522 16.0289 -30.2939
rradius 141.746
rwrist -74.0344
rhand 13.329 -57.301
rfingers 7.12502
rthumb 38.2765 -83.0245
lclavicle 9.14409e-015 7.95139e-015
lhumerus -44.6144 -1.28194 85.8338
lradius 51.2757
lwrist 0.0212163
lhand -6.94133 -24.6755
lfingers 7.12502
lthumb 18.9272 4.42358
rfemur 0 0 0
rtibia 0
rfoot 0 0
rtoes 0
lfemur -8.37462 -0.918965 -11.8895
ltibia 23.9394
lfoot -20.6075 11.7524
ltoes -56.6573
867
root -0.762128 18.7084 5.50986 2.8292 -2.7106 -1.7381
lowerback 14.3761 0.219996 0.518405
upperback 3.52384 0.4248 1.24677
thorax -4.33954 0.204817 0.939679
lowerneck 0.677205 -0.494408 0.217997
upperneck -3.12991 -0.631226 0.877051
head -1.06562 -0.329622 0.239411
rclavicle 8.54774e-015 1.49089e-014
rhumerus 8.07503 16.2143 -30.4551
rradius 141.626
rwrist -74.2613
rhand 13.5402 -57.3086
rfingers 7.12502
rthumb 38.4758 -82.9768
lclavicle 8.54774e-015 1.49089e-014
lhumerus -44.6314 -1.27137 85.868
lradius 51.3444
lwrist 0.0678641
lhand -6.96931 -24.6491
lfingers 7.12502
lthumb 18.9003 4.45268
rfemur 0 0 0
rtibia 0
rfoot 0 0
rtoes 0
lfemur -8.35068 -0.92464 -11.9033
ltibia 23.9448
lfoot -20.609 11.737
ltoes -56.6466
868
root -0.762587 18.7082 5.50983 2.78997 -2.67233 -1.71647
lowerback 14.3837 0.226575 0.526591
upperback 3.56442 0.433697 1.23734
thorax -4.30094 0.209078 0.923535
lowerneck 0.78138 -0.483559 0.114933
upperneck -3.10241 -0.613712 1.03277
head -1.0743 -0.321859 0.304274
rclavicle 3.27995e-015 4.37326e-015
rhumerus 7.8889 16.3553 -30.6701
rradius 141.516
rwrist -74.401
rhand 13.5671 -57.3198
rfingers 7.12502
rthumb 38.5012 -82.9809
lclavicle 3.27995e-015 4.37326e-015
lhumerus -44.6589 -1.33127 85.8648
lradius 51.433
lwrist 0.0622029
lhand -6.9787 -24.5997
lfingers 7.12502
lthumb 18.8913 4.50298
rfemur 0 0 0
rtibia 0
rfoot 0 0
rtoes 0
lfemur -8.31892 -0.912522 -11.926
ltibia 23.9473
lfoot -20.6082 11.7147
ltoes -56.6015
869
root -0.763363 18.7081 5.50946 2.75723 -2.61416 -1.71453
lowerback 14.388 0.256351 0.579615
upperback 3.61402 0.478441 1.20654
thorax -4.25094 0.23065 0.853268
lowerneck 0.817462 -0.508752 0.0425226
upperneck -3.01621 -0.642984 1.25231
head -1.05285 -0.338267 0.383736
rclavicle 8.94531e-016 1.80894e-014
rhumerus 7.59574 16.4014 -30.9367
rradius 141.397
rwrist -74.5529
rhand 13.3392 -57.2999
rfingers 7.12502
rthumb 38.2861 -83.0207
lclavicle 8.94531e-016 1.80894e-014
lhumerus -44.6356 -1.50846 85.8519
lradius 51.5022
lwrist 0.0645656
lhand -6.86297 -24.5647
lfingers 7.12502
lthumb 19.0026 4.52702
rfemur 0 0 0
rtibia 0
rfoot 0 0
rtoes 0
lfemur -8.30218 -0.906055 -11.9213
ltibia 23.9534
lfoot -20.622 11.6642
ltoes -56.5031
870
root -0.764427 18.7083 5.50809 2.7617 -2.5497 -1.70871
lowerback 14.3551 0.258021 0.593742
upperback 3.62825 0.482183 1.20719
thorax -4.21805 0.23245 0.845371
lowerneck 0.840147 -0.497479 0.141373
upperneck -2.8145 -0.631109 1.13993
head -0.994206 -0.33111 0.332049
rclavicle -2.23633e-015 -1.39149e-015
rhumerus 7.35033 16.5054 -31.1801
rradius 141.248
rwrist -74.8114
rhand 13.2059 -57.2519
rfingers 7.12502
rthumb 38.1603 -83.0073
lclavicle -2.23633e-015 -1.39149e-015
lhumerus -44.652 -1.60798 85.8637
lradius 51.5415
lwrist 0.143439
lhand -6.72772 -24.479
lfingers 7.12502
lthumb 19.1327 4.59987
rfemur 0 0 0
rtibia 0
rfoot 0 0
rtoes 0
lfemur -8.33272 -0.889156 -11.9164
ltibia 23.9629
lfoot -20.626 11.5815
ltoes -56.4214
